<?xml version="1.0" standalone="no"?>
<!DOCTYPE svg PUBLIC "-//W3C//DTD SVG 20010904//EN"
 "http://www.w3.org/TR/2001/REC-SVG-20010904/DTD/svg10.dtd">
<svg version="1.0" xmlns="http://www.w3.org/2000/svg"
 width="700.000000pt" height="700.000000pt" viewBox="0 0 700.000000 700.000000"
 preserveAspectRatio="xMidYMid meet">
<metadata>
Created by potrace 1.14, written by Peter Selinger 2001-2017
</metadata>
<g transform="translate(0.000000,700.000000) scale(0.100000,-0.100000)"
fill="#000000" stroke="none">
<path d="M2767 6164 c-1 -1 -47 -5 -101 -9 -55 -4 -109 -9 -120 -11 -12 -2
-38 -6 -58 -8 -33 -4 -113 -18 -173 -30 -11 -2 -65 -15 -120 -29 -597 -153
-1108 -512 -1432 -1009 -146 -224 -231 -414 -326 -723 -29 -94 -62 -253 -73
-350 -3 -27 -7 -56 -9 -63 -28 -84 -27 -693 1 -872 6 -37 7 -47 24 -145 13
-73 68 -302 79 -330 5 -11 28 -72 51 -135 101 -274 256 -541 439 -755 19 -22
84 -88 143 -147 225 -222 515 -407 821 -524 107 -41 305 -100 368 -109 24 -4
46 -8 49 -10 3 -2 26 -6 50 -10 25 -3 70 -10 100 -16 192 -34 681 -34 880 1
96 16 104 18 155 30 28 6 61 14 75 16 125 23 380 120 555 210 434 223 804 559
1097 996 l66 98 7 -58 c6 -57 9 -78 20 -187 3 -33 7 -71 10 -85 2 -14 7 -61
10 -104 4 -43 8 -86 10 -95 3 -15 14 -119 20 -186 2 -16 6 -55 9 -85 4 -30 9
-75 11 -100 5 -57 25 -237 30 -270 2 -14 4 -39 4 -56 l1 -30 616 0 616 0 -7
60 c-3 34 -8 75 -10 91 -4 29 -17 151 -20 190 -2 23 -15 145 -20 190 -2 17 -6
55 -10 85 -3 30 -7 69 -9 85 -2 17 -7 61 -11 98 -3 37 -8 76 -10 85 -1 9 -6
55 -10 102 -4 47 -8 87 -10 90 -2 3 -6 41 -9 85 -4 44 -9 87 -11 95 -2 8 -7
51 -10 94 -4 43 -8 86 -10 95 -1 9 -6 50 -10 91 -4 41 -9 82 -10 90 -2 8 -6
53 -10 100 -4 47 -8 87 -10 90 -2 3 -6 43 -10 90 -4 47 -8 87 -10 90 -2 3 -6
40 -10 83 -3 43 -8 86 -9 95 -2 9 -7 51 -11 92 -4 41 -8 88 -10 103 -7 61 -18
173 -17 182 1 16 11 106 17 150 6 50 12 102 20 185 3 36 8 72 10 80 2 8 6 50
10 92 3 42 8 86 10 96 2 10 6 50 9 88 4 38 8 83 10 99 6 41 16 137 31 283 2
26 7 65 10 87 4 38 6 56 20 190 3 33 8 74 10 90 2 17 6 57 10 90 3 33 8 74 10
90 2 17 7 62 11 100 3 39 8 84 10 100 2 17 6 55 9 85 3 30 8 69 10 85 2 17 7
62 10 100 4 39 9 77 10 86 2 9 6 52 10 95 3 43 8 86 11 95 2 9 7 46 9 83 l5
66 -77 0 c-415 2 -1146 0 -1148 -2 -2 -2 -6 -37 -9 -78 -4 -41 -9 -86 -11
-100 -4 -25 -9 -71 -20 -180 -3 -30 -7 -71 -10 -90 -7 -61 -15 -133 -20 -185
-3 -27 -7 -75 -10 -105 -3 -30 -7 -68 -10 -85 -2 -16 -7 -64 -10 -105 -4 -41
-8 -82 -10 -90 -2 -8 -6 -44 -10 -80 -3 -36 -8 -78 -10 -95 -2 -16 -4 -37 -4
-45 -1 -8 -26 24 -57 70 -220 331 -468 591 -766 803 -208 149 -526 307 -748
373 -50 14 -210 55 -235 60 -16 3 -48 9 -70 14 -48 10 -173 27 -270 36 -64 6
-393 13 -398 8z m621 -938 c290 -24 575 -119 850 -283 100 -60 265 -178 336
-242 66 -58 228 -223 266 -270 19 -23 43 -53 54 -64 10 -12 37 -47 60 -77 22
-30 43 -57 46 -60 13 -12 122 -185 178 -280 51 -88 114 -218 190 -390 20 -44
18 -61 -13 -135 -14 -33 -33 -78 -42 -100 -17 -41 -86 -177 -140 -275 -144
-263 -387 -560 -618 -755 -300 -252 -593 -400 -945 -475 -133 -29 -211 -35
-420 -35 -170 1 -227 6 -362 31 -129 23 -342 103 -473 177 -441 249 -739 714
-800 1247 -3 25 -7 65 -10 90 -6 54 -6 299 0 355 2 22 7 65 10 95 12 112 75
374 96 395 5 5 9 15 9 22 0 8 9 33 20 55 11 23 20 48 20 55 0 7 5 13 10 13 6
0 10 6 10 14 0 21 66 133 139 237 68 95 192 228 276 294 28 22 52 42 55 45 21
22 168 110 250 151 280 139 593 194 948 165z"/>
</g>
</svg>
