<?xml version="1.0" encoding="UTF-8"?>
<svg id="Layer_1" xmlns="http://www.w3.org/2000/svg" version="1.1" viewBox="0 0 87.4 26.6">
  <!-- Generator: Adobe Illustrator 29.1.0, SVG Export Plug-In . SVG Version: 2.1.0 Build 142)  -->
  <defs>
    <style>
      .st0, .st1 {
        fill: #fff;
      }

      .st1 {
        fill-rule: evenodd;
      }

      .st2 {
        fill: #07f;
      }

      .st3 {
        fill: #2962ff;
      }
    </style>
  </defs>
  <rect class="st0" y="0" width="87.4" height="26.6" rx="3.4" ry="3.4"/>
  <path class="st3" d="M35,17.4c1.2-.3,1.9-1.2,1.9-2.4s-1.2-2.5-2.8-2.5h-2.9v7.9h1.3v-2.9h.9l2.1,2.9h1.6l-2.2-3h0ZM34.2,13.8c.8,0,1.4.5,1.4,1.3s-.6,1.3-1.4,1.3h-1.6v-2.5h1.6Z"/>
  <path class="st3" d="M40.3,20.5c.7,0,1.4-.4,1.7-1l.3.9h1v-5.8h-1.3v3.4c0,.8-.5,1.4-1.3,1.4s-1.2-.6-1.2-1.4v-3.4h-1.3v3.5c0,1.4.9,2.4,2.2,2.4Z"/>
  <path class="st3" d="M47.3,20.5c1.5,0,2.7-.8,2.7-2.3s-1.3-2-2.4-2.4c-.9-.3-1.6-.6-1.6-1.3s.6-.9,1.2-.9,1.2.4,1.5,1l1.3-.2c-.4-1.2-1.4-2-2.8-2s-2.6.8-2.6,2.2,1.3,2,2.4,2.4c.8.3,1.6.5,1.6,1.3s-.6,1-1.3,1-1.3-.4-1.8-1.2l-1.3.2c.4,1.3,1.6,2.2,3,2.2Z"/>
  <path class="st3" d="M53.5,19.3c-.4,0-.6-.2-.6-.6v-2.9h1.7v-1.1h-1.7v-1.7h-1l-.3,1.7h-.9v1.1h.9v2.9c0,1.1.7,1.8,1.9,1.8h1.1v-1.1c.1,0-1.1,0-1.1,0Z"/>
  <path class="st3" d="M58.3,20.5c1.8,0,3.1-1.2,3.1-3s-1.3-3-3.1-3-3.1,1.2-3.1,3,1.3,3,3.1,3ZM58.3,19.4c-1,0-1.8-.7-1.8-1.8s.7-1.8,1.8-1.8,1.8.7,1.8,1.8-.7,1.8-1.8,1.8Z"/>
  <path class="st3" d="M63.9,20.4v-3.4c0-.7.4-1.1,1.1-1.1h.7v-1.2h-.4c-.7,0-1.2.2-1.6.8l-.2-.8h-1v5.8h1.3Z"/>
  <path class="st3" d="M72,17.5c0-1.7-1.2-2.9-3-2.9s-3,1.3-3,3,1.2,3,3,3,2.3-.6,2.8-1.7l-1.2-.2c-.3.4-.8.7-1.5.7-1,0-1.6-.6-1.8-1.5h4.7c0-.1,0-.3,0-.4M69,15.6c.8,0,1.4.5,1.6,1.2h-3.2c.2-.7.8-1.2,1.6-1.2"/>
  <path class="st2" d="M6.3,21.2c1.4,1.4,3.6,1.4,8.1,1.4h.8c4.5,0,6.7,0,8.1-1.4,1.4-1.4,1.4-3.6,1.4-8.1v-.8c0-4.5,0-6.7-1.4-8.1-1.4-1.4-3.6-1.4-8.1-1.4h-.8c-4.5,0-6.7,0-8.1,1.4-1.4,1.4-1.4,3.6-1.4,8.1v.8c0,4.5,0,6.7,1.4,8.1Z"/>
  <path class="st1" d="M20.2,15.9l-1.3-.3c-.2,0-.3-.2-.3-.4l-.2-4.9c0-.7-.5-1.2-1-1.3,0,0,0,0,0,0,0,0,0,0,0,0,.1,0,.5.4.5,1v6.4c0,.6-.6,1.1-1.2.9l-1.4-.3c-.2,0-.3-.2-.3-.4l-.2-4.9c0-.7-.5-1.2-1-1.3,0,0,0,0,0,0,0,0,0,0,0,0,.1,0,.5.4.5,1v6.4c0,.6-.6,1.1-1.2.9l-3.8-1c-.5-.1-.9-.6-.9-1.2v-6.5c0-.6.6-1.1,1.2-.9l2.4.6v-1.2c0-.6.6-1.1,1.2-.9l2.4.6v-1.2c0-.6.6-1.1,1.2-.9l3.8,1c.5.1.9.6.9,1.2v6.5c0,.6-.6,1.1-1.2.9"/>
  <path class="st3" d="M33.1,8.9c-.4,0-.7,0-1-.3-.3-.2-.5-.4-.7-.7-.2-.3-.2-.7-.2-1s0-.7.2-1c.2-.3.4-.5.7-.7.3-.2.6-.3,1-.3s.7.1,1.1.3c.3.2.5.5.7.8h-.6c-.1-.1-.3-.3-.5-.4-.2-.1-.4-.2-.7-.2s-.5,0-.7.2c-.2.1-.4.3-.5.5-.1.2-.2.5-.2.8s0,.6.2.8c.1.2.3.4.5.5.2.1.4.2.7.2s.5,0,.7-.2c.2-.1.4-.3.5-.5h.6c-.1.4-.4.7-.7.9-.3.2-.7.3-1.1.3Z"/>
  <path class="st3" d="M37.8,8.8h-.7l-1.1-1.2h-.2v1.2h-.5v-2.9h.5v1.2h.2l1-1.2h.7l-1.2,1.4,1.3,1.5Z"/>
  <path class="st3" d="M39.2,5.9c.4,0,.6.1.8.4.2.2.3.6.3,1v1.6h-.4v-.5c-.2.1-.3.3-.5.4-.2,0-.3.1-.6.1s-.4,0-.5-.1c-.2,0-.3-.2-.4-.3,0-.1-.1-.3-.1-.5,0-.3.1-.5.3-.7.2-.2.5-.2.9-.2h.7c0-.2,0-.4-.2-.5-.1-.1-.3-.2-.4-.2s-.3,0-.4.1c-.1,0-.2.2-.2.3h-.5c0-.3.2-.5.4-.6.2-.1.5-.2.7-.2ZM39,8.4c.2,0,.4,0,.6-.2.1-.2.2-.4.2-.6h0s-.6,0-.6,0c-.5,0-.7.1-.7.4s0,.3.2.3c.1,0,.2.1.4.1Z"/>
  <path class="st3" d="M42.5,7.8c0,0-.2,0-.3,0-.1,0-.2,0-.4,0-.3,0-.6,0-.8-.3-.2-.2-.3-.5-.3-.8v-.9h.5v.9c0,.4.2.6.6.6s.4,0,.6-.1v-1.3h.5v2.9h-.5v-1Z"/>
  <path class="st3" d="M44.9,5.9c.4,0,.6.1.8.4.2.2.3.6.3,1v1.6h-.4v-.5c-.2.1-.3.3-.5.4-.2,0-.3.1-.6.1s-.4,0-.5-.1c-.2,0-.3-.2-.4-.3,0-.1-.1-.3-.1-.5,0-.3.1-.5.3-.7.2-.2.5-.2.9-.2h.7c0-.2,0-.4-.2-.5-.1-.1-.3-.2-.4-.2s-.3,0-.4.1c-.1,0-.2.2-.2.3h-.5c0-.3.2-.5.4-.6.2-.1.5-.2.7-.2ZM44.7,8.4c.2,0,.4,0,.6-.2.1-.2.2-.4.2-.6h0s-.6,0-.6,0c-.5,0-.7.1-.7.4s0,.3.2.3c.1,0,.2.1.4.1Z"/>
  <path class="st3" d="M47.5,8.8h-.8v-2.9h.5v2.3h0l1.2-2.3h.8v2.9h-.5v-2.3h0l-1.2,2.3ZM48,5.5c-.2,0-.4,0-.6-.2-.2-.1-.3-.3-.3-.6h.4c0,.1,0,.2.1.3,0,0,.2,0,.3,0s.2,0,.3,0c0,0,.1-.2.1-.3h.5c0,.3-.1.4-.3.6-.2.1-.4.2-.6.2Z"/>
  <path class="st3" d="M51.3,8.8h-.5v-2.4h-1v-.5h2.5v.5h-1v2.4Z"/>
  <path class="st3" d="M55.4,7.3c0,0,0,.1,0,.2h-2.4c0,.3.1.5.3.6.2.2.4.2.7.2s.3,0,.5-.1c.1,0,.3-.2.3-.3h.5c-.1.3-.3.5-.5.7-.2.1-.5.2-.8.2s-.5,0-.8-.2c-.2-.1-.4-.3-.5-.5-.1-.2-.2-.5-.2-.8s0-.5.2-.8c.1-.2.3-.4.5-.5.2-.1.5-.2.8-.2s.5,0,.8.2c.2.1.4.3.5.5.1.2.2.5.2.8ZM53.9,6.3c-.2,0-.4,0-.6.2-.2.1-.3.3-.3.5h1.8c0-.2-.2-.4-.3-.5-.2-.1-.3-.2-.6-.2Z"/>
  <path class="st3" d="M57.8,8.8h-.8v-2.9h.5v2.3h0l1.2-2.3h.8v2.9h-.5v-2.3h0l-1.2,2.3Z"/>
  <path class="st3" d="M61.9,7.3c.2,0,.3.1.4.2.1.1.2.3.2.4s0,.3-.1.4c0,.1-.2.2-.4.3-.2,0-.4.1-.6.1s-.6,0-.8-.2c-.2-.1-.4-.3-.4-.6h.5c.1.2.4.3.7.3s.3,0,.4-.1c.1,0,.2-.2.2-.3s0-.2-.1-.3c0,0-.2-.1-.5-.1h-.4v-.5h.4c.2,0,.3,0,.4-.1,0,0,.1-.2.1-.3s0-.2-.2-.3c-.1,0-.2-.1-.4-.1s-.3,0-.4.1c-.1,0-.2.2-.3.3h-.5c0-.3.2-.5.4-.7.2-.1.5-.2.7-.2s.4,0,.5.1c.2,0,.3.2.4.3,0,.1.1.3.1.4s0,.3-.1.4c0,.1-.2.2-.4.2Z"/>
</svg>