<svg width="17" height="22" viewBox="0 0 17 22" fill="none" xmlns="http://www.w3.org/2000/svg">
<path d="M0.790039 22H0V0H0.790039C2.00928 0 3.17139 0.475586 3.9917 1.30957L10.8745 8.30957C12.375 9.83496 12.375 12.165 10.8745 13.6904L3.9917 20.6904C3.61768 21.0713 3.17236 21.377 2.68311 21.5967C2.09961 21.8594 1.45312 22 0.790039 22Z" fill="#D9D9D9"/>
<path d="M9.97266 0H17V22H9.97266C9.43262 22 9.05664 21.5771 9.00586 21.1045C8.97754 20.8389 9.05078 20.5576 9.25439 20.3271L15.1113 13.6904C16.457 12.165 16.457 9.83496 15.1113 8.30957L9.25439 1.67285C8.6875 1.03027 9.12988 0 9.97266 0Z" fill="#D9D9D9"/>
</svg>
