<svg width="17" height="22" viewBox="0 0 17 22" fill="none" xmlns="http://www.w3.org/2000/svg">
<path d="M0 22H0.790115C1.45294 22 2.0994 21.8594 2.68301 21.5967C3.17261 21.377 3.61784 21.0713 3.99177 20.6904L10.8746 13.6904C12.3751 12.165 12.3751 9.83496 10.8746 8.30957L3.99177 1.30957C3.17155 0.475586 2.00909 0 0.790115 0H0V22Z" fill="#D9D9D9"/>
<path d="M17 0H9.97252C9.12975 0 8.68751 1.03027 9.25441 1.67285L15.1111 8.30957C16.4573 9.83496 16.4573 12.165 15.1111 13.6904L9.25441 20.3271C8.68751 20.9697 9.12975 22 9.97252 22H17V0Z" fill="#B7B7B7"/>
</svg>
