<?xml version="1.0" encoding="utf-8"?>
<!-- Generator: Adobe Illustrator 26.0.3, SVG Export Plug-In . SVG Version: 6.00 Build 0)  -->
<svg version="1.1" id="Layer_1" xmlns="http://www.w3.org/2000/svg" xmlns:xlink="http://www.w3.org/1999/xlink" x="0px" y="0px"
	 viewBox="0 0 234 59" style="enable-background:new 0 0 234 59;" xml:space="preserve">
<style type="text/css">
	.st0{fill:#BAD5FF;}
	.st1{fill:#3C84F3;}
	.st2{fill:#FF2741;}
</style>
<path class="st0" d="M42.7,34.1c-3.9-3.7-0.1-6.8,2-5.3c2.1,1.5,3.5,5.7,5.2,7.4c1.7,1.7,5.2,9.4,3.9,7.9s-4.1-6-6.6-6.8
	C44.7,36.5,42.7,34.1,42.7,34.1z"/>
<path class="st0" d="M81.2,36.8c-1.8-1-2.2-3.5-1.5-4.2c0.7-0.7,2.7-0.7,3.4,0.8c0.7,1.5,3.8,2.5,6.8,2.6c3,0.1,2.6,1.7-2.3,1.4
	C82.6,37.1,83.9,37.4,81.2,36.8z"/>
<path class="st1" d="M91.3,4.2c3,0.2,4.9,0.1,7.3-1.9c0.1,0,0.2-0.2,0.4-0.2c0.1,0,0.3,0,0.4,0.1c0.3,0.1,0.4,0.5,0.4,0.8
	c-0.2,0.8-0.4,1.9-1.1,2.4c0.2-0.8-0.1-1.6-0.2-2.4v0c0,0.2,0.1,0.3,0.2,0.4c0.2,0.2,0.5,0.2,0.7,0.1c0.1-0.1,0.1,0,0.1,0
	c0,0-0.1,0.2-0.2,0.3C97.5,6.2,93.6,5.8,91.3,4.2z"/>
<path class="st1" d="M96.7,3c-1.2-0.3-2.5-0.5-3.7,0.1c-0.8,0.4-1.5,1-2.5,1.1c-1.5,0.2-3.1-0.8-3.9-1.9c0.9,0.3,1.8,0.5,2.5,0.4
	C90,2.5,90.5,2.2,91.3,2C93.2,1.3,95.2,1.6,96.7,3z"/>
<path class="st1" d="M90,4.2c-1.9,0.4-3.1,1.9-5,2.2c-1.3,0.3-2.8,0.1-4,0.5c-0.7,0.3-1.4,0.7-2,1.3c-0.7,0.6-1.5,1.2-2.3,1.6
	c-0.7,0.3-1.3,0.7-2.1,0.8C75.9,9.5,77,8.4,78,7.2c1.6-2.1,3.6-2.7,6.1-2.3c0.6,0.1,1.1,0.1,1.7,0C87.1,4.7,88.6,3.8,90,4.2z"/>
<path class="st1" d="M89.5,6.4C88.2,7,87.1,7.8,86,8.7c-0.7,0.7-1.3,1.5-2.2,2c-0.5,0.3-1,0.5-1.6,0.6c-0.8,0.2-1.6,0.4-2.3,0.7
	c-0.5,0.3-1.5,1.1-2.1,1.4C77,14.1,76,14.6,75,14.8c-1,0.2-1.9,0.3-2.8,0.5c-0.9,0.2-1.8,0.6-1.8,1.7c-0.2-1.1,0.7-1.8,1.6-2.2
	c1.7-0.7,3.5-1.1,4.6-2.6c0.3-0.4,0.5-0.8,0.9-1.2c0.8-0.9,2.2-1.5,3.4-1.5c0.4,0,0.8,0,1.1,0c0.9,0.1,1.5-0.1,2.3-0.7
	c0.8-0.5,1.6-1.1,2.4-1.5C87.7,6.9,88.6,6.6,89.5,6.4z"/>
<path class="st1" d="M99.2,5.5c1.2,1,2.2,2.1,3.3,3.2c0.5,0.6,1.1,1.1,1.6,1.7c0.7,0.9,1.2,1.8,1.8,2.7c0.7,0.9,1.3,1.9,1.8,3
	c0.2,0.5,0.5,1,0.5,1.6c0,0.1,0,0.3-0.1,0.4c-0.2,0.6-0.5,1.1-0.8,1.6c-0.2,0.3-0.4,0.6-0.7,0.9c0.4-0.7,0.6-1.4,0.7-2.1
	c0-0.2,0.1-0.4,0.1-0.7c-0.1-0.4-0.4-0.7-0.7-1c-0.8-0.9-1.7-1.7-2.5-2.6c-0.5-0.5-0.9-1.1-1.3-1.6c-0.7-0.9-1.1-2-1.5-3.1
	C100.8,8,100.1,6.7,99.2,5.5z"/>
<path class="st1" d="M82.2,12.5c-1.2,0.8-2.3,1.6-3.1,2.8c-0.4,0.5-0.9,1.1-1.4,1.6c-1,1.1-2.4,1.8-3.8,2.3
	c-1.7,0.5-3.5,0.8-5.3,0.9c-0.4,0-0.7,0.1-1.1,0.1c1.3-0.5,2.6-0.9,3.9-1.5c1.3-0.6,2.4-1.3,3.5-2c0.5-0.4,1.1-0.7,1.6-1.1
	C78.4,14.4,80.2,13.3,82.2,12.5z"/>
<path class="st0" d="M83.8,20.6c-0.6,1.5-1.5,3.3-2.7,4.1c-1.5,1-0.1,1.8,2.1-0.7c2.2-2.6,6,0.2,6.6-1c0.3-0.7,1-2.5,2-4
	c-1.8,0.6-3.6,1.1-5.4,1.4C85.5,20.5,84.6,20.5,83.8,20.6z M93.2,14.9c-0.4-1.2,1.7-2.8,0.2-2.6c-5.9,1-8.7,5.6-9.2,7.1
	c0,0.1-0.1,0.2-0.1,0.3c2.9-0.3,5.8-0.9,8.6-1.9c0.6-0.7,1.3-1.2,2-1.2C97,16.7,93.6,16.1,93.2,14.9z"/>
<path class="st1" d="M72.6,20.5c4.5-0.5,9-0.8,13.5-1.6c4.5-0.7,8.7-2.3,13.1-3.6c-1,0.5-2.1,1-3.1,1.5c-3.1,1.4-6.4,2.5-9.8,3.1
	C81.8,20.5,77.2,20.6,72.6,20.5z"/>
<path class="st1" d="M95.6,16.6c-3,0-3.6,3.7-3.7,6.1c-0.1,1.7-0.1,3.4-0.2,5.1c0,0.8-0.1,1.5-0.2,2.3c-0.1,0.8-0.2,1.6-0.4,2.3
	c-0.3-1.5-0.6-3-0.8-4.6c-0.2-1.5-0.2-3.1-0.1-4.7c0.1-1.6,0.4-3.2,1.2-4.7c0.6-1.1,1.6-2.1,2.9-2.2c0.4,0,0.8,0,1.2,0.2
	C95.6,16.5,95.6,16.6,95.6,16.6z"/>
<path class="st1" d="M79,31.8c0.7,4.3,2.6,5.2,6.7,4.8c2.5-0.3,4.9-0.7,7.4,0.1c0.5,0.1,1,0.3,1.3,0.7c0.4,0.4,0.7,0.9,1.1,1.3
	c0.6,0.7,1.3,1.4,2.1,2.1c-0.9-0.5-1.7-1-2.4-1.7c-0.4-0.3-0.8-0.7-1.1-1c-0.2-0.2-0.7-0.3-1.1-0.3c-1.4,0-2.8,0.2-4.2,0.2
	c-1,0-2,0.1-2.9,0.1C81.4,38.3,78.7,36.7,79,31.8z"/>
<path class="st1" d="M90.9,40.2c1.1,0.6,2.3,1.3,3.3,1.9c1.1,0.7,2.2,1.3,3.1,2.2c0.6,0.6,1.2,1.2,1.6,2c0.1,0.2,0.3,0.5,0.4,0.7
	c0.5,1.1,1,2.2,1.5,3.3c0.4,1.1,0.5,1.1-0.3,0.2c-0.6-0.7-1.2-1.5-1.9-2.2c-0.4-0.5-0.7-1-1.2-1.4c-0.9-0.8-1.9-1.6-2.6-2.5
	C93.6,43,92.2,41.5,90.9,40.2z"/>
<path class="st0" d="M56.2,35.7c-6.4-3.3-8.3-6.5-5-7.2c3.3-0.7,8,1.8,16.5,3.2c8.6,1.3,14.3-6.2,17.2-6.5c2.9-0.4,4.2,1.3,1.3,1.2
	c-2.9-0.1-8.3,3.4-7.6,6.2c0.8,2.8,1,6.4-4.1,6.2C69.6,38.4,63.2,41.4,56.2,35.7z"/>
<path class="st1" d="M67.5,20.3c0.2,1.3,1.3,8.7,1.2,8.7c-0.1,0-1.5,0.5-1.9,0.7c1.9,0.2,3.4-0.6,3.4-0.7c0-0.1-1.1-7.4-1.1-9
	C68.9,20,67.4,20.1,67.5,20.3z"/>
<path class="st1" d="M66,20.5l-0.3,4.7l-0.5-4.6L66,20.5z"/>
<path class="st1" d="M54,34.6c2.1,0.7,4,1.6,5.9,2.4c1.4,0.7,2.7,1.2,4.2,1.3c2.6,0,5.2-0.3,7.8-0.3c2.1,0,4.4,0.1,6.4,0.9
	c-4.8,0.1-9.5,1.5-14.3,1.2c-0.6-0.1-1.3-0.2-2-0.4c-1-0.4-1.9-0.9-2.8-1.4C57.4,37.2,55.7,36,54,34.6z"/>
<path class="st1" d="M44.7,22.3c-0.4,0.6-0.9,1-1.4,1.6c-0.5,0.5-0.9,1-1.3,1.6c-1,1.7-1.2,3.9-0.7,5.9c0.5,1.9,2.1,3,3.9,3.8
	c1.3,0.6,2.6,1.1,3.8,2c0.6,0.5,1.2,1,1.6,1.6c0.5,0.6,0.9,1.2,1.3,1.8c1.2,2.1,3,5.2,4.2,7.4c-1.3-1.6-2.6-3.4-3.9-5
	c-0.8-1.1-1.7-2.2-2.7-3.1C47,37.7,43,37,41.1,33.8c-1.4-2.5-1-6.3,0.6-8.6c0.4-0.6,0.9-1.1,1.4-1.6C43.6,23.2,44.3,22.8,44.7,22.3
	L44.7,22.3z"/>
<path class="st1" d="M68.5,22.2c-9.6,1-19.1,2.7-28.4,5.5c-6.9,2-13.8,4.4-20.2,7.6l-0.9,0.4c-0.3,0.1-0.6,0.2-0.9,0.3
	c-1.6,0.4-3.5,0.4-4.7-0.9c-0.2-0.2-0.4-0.5-0.5-0.8c0.9,0.7,2.1,0.9,3.2,0.7c1.1-0.2,2.1-0.6,3.1-1.1c2.2-1.1,4.4-2.1,6.7-3
	c9.1-3.6,18.5-6.1,28.1-7.5C58.9,22.7,63.7,22.2,68.5,22.2C68.5,22.1,68.5,22.2,68.5,22.2z"/>
<path class="st1" d="M21.6,40.2c1.1-1.2,2.9-0.8,4.2-0.2c2.1,0.7,4.6,0.7,6.5-0.3c1.9-1,3.8-2.5,4.7-4.5c1.1-2.6,2-5.3,3-8l0.1,0
	c-0.2,2.3-0.7,4.6-1.3,6.9c-0.3,1.2-0.6,2.4-1.3,3.4c-1.4,2.1-3.5,3.9-5.9,4.3c-2.1,0.3-4.3,0-6.3-1C24.3,40.1,22.8,39.4,21.6,40.2
	L21.6,40.2z"/>
<path class="st1" d="M20.8,39.6c1.2-1.3,3.5-1.2,5.2-1.4c1.7-0.1,3.3-0.7,4.8-1.4c1.1-0.6,2.1-1.2,2.9-2.2c0.3-0.3,0.5-0.7,0.7-1
	c0.9-1.5,1.7-3.1,2.5-4.7l0.1,0c-0.1,0.9-0.3,1.8-0.6,2.7c-0.4,1.6-1,3.2-2.1,4.4c-2.1,2.4-5.3,3.5-8.4,3.2
	c-0.9-0.1-1.8-0.2-2.6-0.2c-0.9,0-1.7,0.1-2.5,0.6C20.9,39.7,20.8,39.6,20.8,39.6z"/>
<path class="st1" d="M22.3,38.4c0.7-1.8,2.6-1.8,4.2-2c1.4-0.2,2.8-0.8,3.8-1.9c1-1.1,1.6-2.6,2.2-4c0.7-1.5,1.6-2.9,2.9-4
	c0.6-0.6,1.3-1.1,2.1-1.5c0.4-0.2,1.1-0.4,1.5-0.6c0.6-0.3,1.2-0.6,1.8-1c1.6-1.2,3.1-3,5.1-3.9c2-1,4.3-1.3,6.5-1.1
	c2.1,0.2,4.2,0.8,6.2,1.3c2,0.5,4,0.9,6.1,0.8c-2.1,0.3-4.2,0.2-6.3-0.1c-2-0.3-4.1-0.4-6.1-0.3c-1.9,0.2-3.8,0.4-5.6,1.3
	c-1.9,0.8-3.1,2.3-4.8,3.6c-0.7,0.5-1.4,1-2.3,1.3c-1.2,0.4-2.2,0.8-3.3,1.5c-1.2,0.8-2.3,1.9-3,3.2c-0.8,1.4-1.3,2.9-2.4,4.1
	c-1.1,1.3-2.7,2-4.4,2.2C25.1,37.6,23.5,37.2,22.3,38.4z"/>
<path class="st1" d="M42.7,24.1c0,0-1.4,1.7-1.5,2.4c-1.8,0.6-4.4,1-4.4,1l0.3-1.2L42.7,24.1z"/>
<path class="st1" d="M8.4,50.6c-1.8-3.4-2.9-7.9-0.8-11.5c0.9-1.7,2.5-3,4.3-3.5c1.3-0.3,2.7-0.3,4-0.1c2.6,0.4,4.9,1.9,6.5,4
	c2.1,2.6,3.4,6.5,3.3,9.9c-0.1,3.1-1.8,5.8-4.3,7.4c0.6-0.7,1.3-1.4,1.7-2.2c1.3-2.1,1.5-4.8,0.9-7.2c-0.9-3.5-2.8-7.2-6.1-8.9
	c-1.7-0.8-3.6-1.2-5.5-0.9c-2.2,0.6-3.8,2.6-4.4,4.8C7.3,45.1,7.8,47.9,8.4,50.6z"/>
<path class="st1" d="M23.7,42.5l8.5-1.4l0.1,0.4l-8.1,3L23.7,42.5z"/>
<path class="st1" d="M43.8,34.8c0,3.2-4.1,5.3-6.3,6.9c-0.5,0.4-1.1,0.6-1.6,1c-0.2,0.2-0.4,0.4-0.5,0.7c-0.2,0.7-0.4,1.3-0.5,2
	c-0.1,0.5-0.4,1.6-0.5,2.1l-0.1,0l0.1-2.1c0-0.8,0.1-1.6,0.2-2.4c0.1-0.7,0.6-1.5,1.1-2c0.6-0.5,1.2-0.8,1.8-1.2
	c1.8-1,3.7-1.8,5.2-3.2C43.2,36,43.5,35.5,43.8,34.8C43.7,34.8,43.8,34.8,43.8,34.8z"/>
<path class="st0" d="M26.4,25.2c1.8,2.1,3.3,5.7,5.6,3.2c3.6-3.9,1.8-8.8,1.4-8.8c-0.4,0-0.9,5.2-2.5,4.9
	C27.5,23.7,24.6,23.1,26.4,25.2z"/>
<path class="st0" d="M23.6,23c0.8,0.5,0.4-1.8,1-0.6c0.7,1.2,2.1,4,3.6,5.2c1.5,1.2,2,2,0.8,2c-0.5,0-3.1,0-4.8-1.7
	C22,25.5,20.8,21.2,23.6,23z"/>
<path class="st0" d="M7.3,28.4c5.8,9.7,9.8,7.7,16,4c5.1-3-1.7-3.5-3.4-6.8c-1.7-3.2-0.9,3.6-4,4.1C11.9,30.4,5.8,26.5,7.3,28.4z"/>
<path class="st0" d="M4.2,34.1c-1.7-2.2-1.9-3-0.5-2.4c1.4,0.6,1.1-2.6,1.5-1.2c0.4,1.4,5.4,5.5,7.8,6.1c2.3,0.6-3.2,2.7-6.1,0.7
	C4,35.3,4.8,35,4.2,34.1z"/>
<path class="st1" d="M2.1,22.3c-1.9,4.4-0.6,9.8,2.8,13c1.6,1.6,3.8,2.8,6.1,2.4c0.9-0.2,1.8-0.6,2.6-1c0,0,0,0,0,0c0,0,0,0-0.1,0.1
	c0,0,0,0.1,0,0.2c0,0.1,0.1,0.3,0.1,0.3c-1.1-0.3-2.4-0.7-3.5-1.3c-3-1.6-4.9-4.7-5.9-7.8c-1.6-4.7-0.5-9.9,4.2-12.3
	c1.1-0.6,2.5-0.6,3.7-0.7c1.5-0.1,3-0.6,4.2-1.5c1.3-0.9,2.5-2.1,4-2.8c2.2-1.1,5.1-1.5,7.4-0.5c1.6,0.7,2.8,1.8,3.8,3.1l0,0
	c-1.9-1.5-3.9-2.6-6.2-2.5c-2.3,0.1-4.3,1.2-6.3,2.3c-2.1,1.2-4.2,2.7-6.6,3.2c-0.8,0.2-1.6,0.3-2.3,0.5c-1.3,0.4-2.5,1.3-3.4,2.4
	c-2.9,3.6-1.5,9,0.8,12.6c1.3,1.9,3.1,3.3,5.3,4c0.5,0.2,1,0.3,1.5,0.6c0.3,0.2,0.3,0.7,0,1c-0.3,0.2-0.5,0.3-0.8,0.4
	c-0.8,0.3-1.5,0.6-2.4,0.7c-2.5,0.3-5-1.1-6.7-2.8C1.1,32.4-0.1,26.6,2.1,22.3z"/>
<path class="st1" d="M19.5,14.2c-1.9,5.1,0.1,11.2,4.4,14.4c1.3,1,2.9,1.7,4.5,1.3c0.3-0.1,0.8-0.3,1-0.6c0,0,0,0,0,0c0,0,0,0,0,0
	c0,0,0,0,0,0c0,0,0,0,0,0c-0.2-0.2-0.8-0.4-1.1-0.5c-1.3-0.5-2.4-1.6-3.3-2.6c-2.4-3-4-7.1-2.9-11c0.3-0.9,0.7-1.8,1.3-2.5l0,0
	c-0.6,1.8-0.7,3.6-0.4,5.3c0.6,3.2,2.4,6.8,5.1,8.8c0.2,0.2,0.5,0.3,0.7,0.4c0.4,0.1,0.7,0.2,1.1,0.5c1.7,1,1.3,2.9-0.4,3.6
	c-2.3,0.9-4.8,0-6.6-1.5c-3-2.4-4.8-6.2-4.8-10.1c0-1.4,0.2-2.8,0.7-4.2C19,15,19.2,14.6,19.5,14.2C19.5,14.2,19.5,14.2,19.5,14.2z"
	/>
<path class="st1" d="M31.1,25.1c1.7,1.4,2.7,0.3,3.3-1.5c0.4-0.9,0.5-1.9,1-2.8c0.4-0.7,1.2-1.2,2.1-1.3c0.4-0.1,0.7-0.1,1.1-0.3
	c0.8-0.3,1.6-0.6,1.8-1.3c0.3-1,0.1-2.4-0.7-3.1c-0.4-0.4-1.1-0.7-1.6-0.3c-0.6,0.7-0.6,2-0.3,2.9c0.2,0.5,0.4,0.9,0.8,1.3l0,0.1
	c-1.2-0.3-2-1.5-2.2-2.7c-0.4-4.2,4.2-4,5.2-0.6c0.3,0.9,0.3,2,0,2.9c-0.3,1-1.3,1.7-2.2,1.9l-0.4,0.1c-0.4,0.2-0.9,0.2-1.3,0.3
	c-1.1,0.1-1.5,0.8-1.9,1.7c-0.5,1.3-1.5,3.9-3.3,3.7C31.8,26,31.4,25.6,31.1,25.1C31,25.2,31.1,25.1,31.1,25.1z"/>
<path class="st1" d="M34.2,15.8c-0.1,0-0.1-0.1-0.2,0c-0.1,0-0.2,0.2-0.3,0.5c-0.4,1.5,0.4,3.5,1.9,4.1c-1.2-0.2-2.2-1.2-2.6-2.3
	c-0.4-1.1-0.6-3,0.7-3.5c0.6-0.2,1.5-0.1,1.4,0.7C35.1,15.6,34.6,15.9,34.2,15.8z"/>
<path class="st1" d="M13.1,37c0.1,0,0.3,0,0.3,0.1l0,0.1c0.4,1.3,0.8,2.7,1.2,4c0.4,1.4,0.8,2.8,1.3,4.2c0.2,0.5,0.4,1,0.7,1.4
	c0,0,0,0-0.1,0c-0.1,0-0.1,0-0.2,0s-0.2,0-0.2,0.1c0,0,0,0,0.1,0c1.1-0.7,1.5-2,1.9-3.2c0.2-0.6,0.4-1.2,0.7-1.8
	c0.1-0.1,0-0.2,0.3-0.2l0.1,0c0.3,0.2,0.1,0.3,0.1,0.3c-0.5,1.7-1.3,3.3-1.8,5c-0.1,0.3-0.2,0.5-0.4,0.7c-0.4,0.5-1.2,0.5-1.6,0
	c-0.5-0.6-0.7-1.3-1-2c-0.2-0.7-0.4-1.5-0.6-2.2c-0.4-1.8-0.8-3.6-1.2-5.4c0-0.2-0.1-0.7-0.2-0.9c0,0,0.1-0.1,0.1-0.1l0.1-0.1
	L13.1,37z"/>
<path class="st1" d="M125.3,36.5c0-0.6-0.1-1-0.3-1.4c-0.4-0.8-1.2-1.3-2.2-1.3c-1.3,0-2.4,1.1-2.4,2.4c0,1.4,1.1,2.5,2.5,2.5
	c1,0,1.9-0.7,2.3-1.6h-0.7c-0.3,0.6-0.9,1.1-1.6,1.1c-1,0-1.8-0.7-1.8-1.7H125.3z M121.1,35.9c0.2-0.9,0.9-1.5,1.8-1.5
	c0.9,0,1.6,0.6,1.8,1.5H121.1z"/>
<path class="st1" d="M130.1,38.6l0.2,1.1h0.4v-1.6h-0.6l-1.8-4.1h-0.7l-1.8,4.1h-0.6v1.6h0.4l0.2-1.1H130.1z M129.5,38.1h-2.9
	l1.4-3.4L129.5,38.1z"/>
<path class="st1" d="M135,34l-2.8,3.8V34h-0.6v4.7h0.6l2.8-3.8v3.8h0.6V34H135z"/>
<path class="st1" d="M140.7,38.6V34h-0.6v2h-2.8v-2h-0.6v4.7h0.6v-2.1h2.8v2.1H140.7z"/>
<path class="st1" d="M146.6,34h-0.6v0.8c-0.5-0.7-1-0.9-1.8-0.9c-1.4,0-2.5,1.1-2.5,2.5s1.1,2.4,2.5,2.4c0.8,0,1.3-0.3,1.8-0.9v0.8
	h0.6V34z M144.1,34.4c1.1,0,1.9,0.8,1.9,1.9c0,1.1-0.8,1.9-1.8,1.9c-1,0-1.9-0.8-1.9-1.9C142.3,35.3,143.1,34.4,144.1,34.4z"/>
<path class="st1" d="M150.2,36.2h-1.1c-0.8,0-1.1-0.3-1.1-0.8c0-0.5,0.4-0.8,1.1-0.8h1.1V36.2z M149.2,36.7h1v1.9h0.6V34H149
	c-1,0-1.6,0.6-1.6,1.4c0,0.7,0.4,1.2,1.1,1.3l-1.3,1.9h0.7L149.2,36.7z"/>
<path class="st1" d="M158.3,37.3c-0.5,0.6-0.9,0.9-1.6,0.9c-1.1,0-1.9-0.8-1.9-1.9c0-1.1,0.8-1.9,1.9-1.9c0.7,0,1.3,0.3,1.6,0.9h0.7
	c-0.4-0.9-1.3-1.5-2.3-1.5c-1.4,0-2.5,1.1-2.5,2.4c0,1.4,1.1,2.5,2.5,2.5c0.6,0,1.1-0.2,1.5-0.5c0.3-0.2,0.5-0.5,0.8-1H158.3z"/>
<path class="st1" d="M163.9,38.6l-2-4.7h-0.7l-2,4.7h0.7l1.7-4l1.7,4H163.9z"/>
<path class="st1" d="M164.9,40.3h0.7l2.7-6.3h-0.7l-1.6,3.7l-1.5-3.7h-0.7l1.8,4.5L164.9,40.3z"/>
<path class="st1" d="M171,34v2.1l-1.8-2.1h-0.8l2,2.3l-2,2.4h0.8l1.8-2.2v2.2h0.6v-2.2l1.8,2.2h0.8l-2-2.4l2-2.3h-0.8l-1.8,2.1V34
	H171z"/>
<path class="st1" d="M179.3,32.5v-0.6l-2,0.2c-1.8,0.2-2.6,1.1-2.6,3c0,1.7,0.1,2.6,1.1,3.2c0.4,0.3,0.8,0.4,1.4,0.4
	c1.4,0,2.5-1.1,2.5-2.5c0-1.4-1.1-2.4-2.5-2.4c-1.1,0-1.7,0.6-2,1.2l0,0c0-1.4,0.8-2.3,2.2-2.4L179.3,32.5z M177.2,38.2
	c-1.1,0-1.8-0.8-1.8-1.9c0-1,0.8-1.8,1.8-1.8c1.1,0,1.8,0.8,1.8,1.8C179,37.3,178.2,38.2,177.2,38.2z"/>
<path class="st1" d="M185.3,34h-0.6v0.8c-0.5-0.7-1-0.9-1.8-0.9c-1.4,0-2.5,1.1-2.5,2.5s1.1,2.4,2.5,2.4c0.8,0,1.3-0.3,1.8-0.9v0.8
	h0.6V34z M182.8,34.4c1.1,0,1.9,0.8,1.9,1.9c0,1.1-0.8,1.9-1.8,1.9c-1,0-1.9-0.8-1.9-1.9C181,35.3,181.8,34.4,182.8,34.4z"/>
<path class="st1" d="M193.1,38.6l0.2,1.1h0.4v-1.6h-0.6l-1.8-4.1h-0.7l-1.8,4.1h-0.6v1.6h0.4l0.2-1.1H193.1z M192.5,38.1h-2.9
	l1.4-3.4L192.5,38.1z"/>
<path class="st1" d="M196.4,33.8c-1.4,0-2.5,1-2.5,2.5c0,1.4,1.1,2.4,2.5,2.4c1.4,0,2.4-1,2.4-2.4C198.8,34.9,197.7,33.8,196.4,33.8
	z M196.3,34.4c1.1,0,1.8,0.8,1.8,1.9c0,1.1-0.7,1.8-1.8,1.8c-1.1,0-1.8-0.8-1.8-1.9C194.5,35.2,195.3,34.4,196.3,34.4z"/>
<path class="st1" d="M203.6,37.3c-0.5,0.6-0.9,0.9-1.6,0.9c-1.1,0-1.9-0.8-1.9-1.9c0-1.1,0.8-1.9,1.9-1.9c0.7,0,1.3,0.3,1.6,0.9h0.7
	c-0.4-0.9-1.3-1.5-2.3-1.5c-1.4,0-2.5,1.1-2.5,2.4c0,1.4,1.1,2.5,2.5,2.5c0.6,0,1.1-0.2,1.5-0.5c0.3-0.2,0.5-0.5,0.8-1H203.6z"/>
<path class="st1" d="M207.7,34.5V34h-3.1v0.6h1.2v4.1h0.6v-4.1H207.7z"/>
<path class="st1" d="M212.9,34h-0.6v0.8c-0.5-0.7-1-0.9-1.8-0.9c-1.4,0-2.5,1.1-2.5,2.5s1.1,2.4,2.5,2.4c0.8,0,1.3-0.3,1.8-0.9v0.8
	h0.6V34z M210.4,34.4c1.1,0,1.9,0.8,1.9,1.9c0,1.1-0.8,1.9-1.8,1.9c-1,0-1.9-0.8-1.9-1.9C208.6,35.3,209.4,34.4,210.4,34.4z"/>
<path class="st1" d="M214.6,36.5h1.2c0.7,0,1.2,0.2,1.2,0.8c0,0.6-0.5,0.8-1.2,0.8h-1.2V36.5z M217.5,35.2c0-0.8-0.6-1.2-1.6-1.2
	H214v4.7h2c1,0,1.7-0.6,1.7-1.4c0-0.5-0.3-0.9-0.9-1.1C217.1,36,217.5,35.7,217.5,35.2z M216.8,35.2c0,0.5-0.5,0.7-1.1,0.7h-1.1
	v-1.4h1.1C216.4,34.5,216.8,34.7,216.8,35.2z"/>
<path class="st1" d="M218.5,34v4.7h0.6v-2.2l2.1,2.2h0.8l-2.3-2.4l2.3-2.3h-0.8l-2.1,2.1V34H218.5z"/>
<path class="st1" d="M226.2,34l-2.8,3.8V34h-0.6v4.7h0.6l2.8-3.8v3.8h0.6V34H226.2z"/>
<path class="st1" d="M124.6,46.6V42h-4v4.7h0.6v-4.1h2.8v4.1H124.6z"/>
<path class="st1" d="M129.2,42l-2.8,3.8V42h-0.6v4.7h0.6l2.8-3.8v3.8h0.6V42H129.2z"/>
<path class="st1" d="M133.5,42.5V42h-3.1v0.6h1.2v4.1h0.6v-4.1H133.5z"/>
<path class="st1" d="M134.8,44.4h1.2c0.8,0,1.1,0.3,1.1,0.8c0,0.5-0.4,0.8-1.1,0.8h-1.2V44.4z M136.2,43.8h-1.4V42h-0.6v4.7h2
	c1,0,1.6-0.6,1.6-1.4C137.8,44.4,137.2,43.8,136.2,43.8z"/>
<path class="st1" d="M143.2,44.5c0-0.6-0.1-1-0.3-1.4c-0.4-0.8-1.2-1.3-2.2-1.3c-1.3,0-2.4,1.1-2.4,2.4c0,1.4,1.1,2.5,2.5,2.5
	c1,0,1.9-0.7,2.3-1.6h-0.7c-0.3,0.6-0.9,1.1-1.6,1.1c-1,0-1.8-0.7-1.8-1.7H143.2z M139,43.9c0.2-0.9,0.9-1.5,1.8-1.5
	c0.9,0,1.6,0.6,1.8,1.5H139z"/>
<path class="st1" d="M144.7,44.5h1.2c0.7,0,1.2,0.2,1.2,0.8c0,0.6-0.5,0.8-1.2,0.8h-1.2V44.5z M147.6,43.2c0-0.8-0.6-1.2-1.6-1.2
	h-1.9v4.7h2c1,0,1.7-0.6,1.7-1.4c0-0.5-0.3-0.9-0.9-1.1C147.2,44,147.6,43.7,147.6,43.2z M147,43.2c0,0.5-0.5,0.7-1.1,0.7h-1.1v-1.4
	h1.1C146.5,42.5,147,42.7,147,43.2z"/>
<path class="st1" d="M151,41.8c-1.4,0-2.5,1-2.5,2.5c0,1.4,1.1,2.4,2.5,2.4c1.4,0,2.4-1,2.4-2.4C153.4,42.9,152.3,41.8,151,41.8z
	 M150.9,42.4c1.1,0,1.8,0.8,1.8,1.9c0,1.1-0.7,1.8-1.8,1.8c-1.1,0-1.8-0.8-1.8-1.9C149.1,43.2,149.9,42.4,150.9,42.4z"/>
<path class="st1" d="M155,40.3c0.1,0.8,0.6,1.1,1.3,1.1c0.7,0,1.2-0.3,1.3-1.1H157c0,0.5-0.2,0.7-0.7,0.7c-0.4,0-0.7-0.2-0.7-0.7
	H155z M157.7,42l-2.8,3.8V42h-0.6v4.7h0.6l2.8-3.8v3.8h0.6V42H157.7z"/>
<path class="st1" d="M162.5,44.5h1.2c0.7,0,1.2,0.2,1.2,0.8c0,0.6-0.5,0.8-1.2,0.8h-1.2V44.5z M165.3,43.2c0-0.8-0.6-1.2-1.6-1.2
	h-1.9v4.7h2c1,0,1.7-0.6,1.7-1.4c0-0.5-0.3-0.9-0.9-1.1C164.9,44,165.3,43.7,165.3,43.2z M164.7,43.2c0,0.5-0.5,0.7-1.1,0.7h-1.1
	v-1.4h1.1C164.2,42.5,164.7,42.7,164.7,43.2z"/>
<path class="st1" d="M168.7,41.8c-1.4,0-2.5,1-2.5,2.5c0,1.4,1.1,2.4,2.5,2.4c1.4,0,2.4-1,2.4-2.4C171.1,42.9,170.1,41.8,168.7,41.8
	z M168.6,42.4c1.1,0,1.8,0.8,1.8,1.9c0,1.1-0.7,1.8-1.8,1.8c-1.1,0-1.8-0.8-1.8-1.9C166.9,43.2,167.6,42.4,168.6,42.4z"/>
<path class="st1" d="M175.9,46.6l0.2,1.1h0.4v-1.6H176l-1.8-4.1h-0.7l-1.8,4.1h-0.6v1.6h0.4l0.2-1.1H175.9z M175.3,46.1h-2.9
	l1.4-3.4L175.3,46.1z"/>
<path class="st1" d="M177.9,44.4h1.1c0.8,0,1.1,0.3,1.1,0.8c0,0.5-0.4,0.8-1.1,0.8h-1.1V44.4z M179.2,43.8h-1.3V42h-0.6v4.7h1.9
	c1,0,1.6-0.6,1.6-1.4C180.8,44.4,180.2,43.8,179.2,43.8z M182,42h-0.6v4.7h0.6V42z"/>
<path class="st2" d="M131.7,26l-0.5-4.5l0.6-1.6l-0.6-1.5l0.5-4.5h2.9l-0.6,6l0.6,6H131.7z M132.6,20c-0.3,1.3-0.7,2.4-1.4,3.3
	c-0.6,1-1.4,1.7-2.3,2.2c-0.9,0.5-1.9,0.8-3,0.8c-1.2,0-2.2-0.3-3.1-0.8c-0.9-0.5-1.6-1.3-2.1-2.2c-0.5-1-0.8-2.1-0.8-3.3
	c0-1.2,0.3-2.3,0.8-3.3c0.5-1,1.2-1.7,2.1-2.2c0.9-0.5,2-0.8,3.1-0.8c1.1,0,2.1,0.3,3,0.8c0.9,0.5,1.7,1.3,2.3,2.2
	C131.9,17.6,132.3,18.7,132.6,20z M122.6,20c0,0.8,0.2,1.5,0.5,2.1c0.3,0.6,0.8,1.1,1.4,1.5c0.6,0.3,1.3,0.5,2,0.5
	c0.7,0,1.4-0.2,2.1-0.5c0.7-0.3,1.2-0.8,1.7-1.5c0.5-0.6,0.9-1.3,1.2-2.2c-0.3-0.8-0.7-1.5-1.2-2.1c-0.5-0.6-1.1-1.1-1.7-1.5
	c-0.7-0.3-1.4-0.5-2.1-0.5c-0.7,0-1.4,0.2-2,0.5c-0.6,0.3-1.1,0.8-1.4,1.5C122.8,18.5,122.6,19.2,122.6,20z"/>
<path class="st2" d="M137.2,26V13.9h2.8v9.7l-0.8-0.3l7.7-9.4h3.2L139.8,26H137.2z M147.2,26l-3.8-6l1.9-1.7l5.1,7.7H147.2z"/>
<path class="st2" d="M151.5,26l0.6-6l-0.6-6h8.7c0.8,0,1.4,0.1,2,0.4c0.6,0.2,1,0.6,1.3,1.1c0.3,0.5,0.4,1,0.4,1.6
	c0,0.9-0.3,1.6-1,2.1c-0.7,0.5-1.6,0.8-2.8,0.9l0.2-0.5c1.4,0,2.5,0.3,3.2,0.9c0.7,0.5,1.1,1.3,1.1,2.3c0,0.7-0.2,1.3-0.5,1.8
	c-0.3,0.5-0.8,0.9-1.5,1.2c-0.6,0.3-1.4,0.4-2.3,0.4H151.5z M154.2,25.3l-1.1-1.2h6.7c0.7,0,1.3-0.1,1.6-0.4
	c0.3-0.3,0.5-0.7,0.5-1.2c0-0.5-0.2-0.9-0.6-1.2c-0.4-0.3-1-0.4-1.8-0.4h-5.8V19h5.4c0.7,0,1.2-0.1,1.6-0.4c0.3-0.3,0.5-0.7,0.5-1.2
	c0-0.5-0.2-0.9-0.5-1.1c-0.3-0.3-0.8-0.4-1.4-0.4h-6.1l1-1.2l0.6,5.3L154.2,25.3z"/>
<path class="st2" d="M178.3,26l-0.5-4.5l0.6-1.6l-0.6-1.5l0.5-4.5h2.9l-0.6,6l0.6,6H178.3z M179.1,20c-0.3,1.3-0.7,2.4-1.4,3.3
	c-0.6,1-1.4,1.7-2.3,2.2c-0.9,0.5-1.9,0.8-3,0.8c-1.2,0-2.2-0.3-3.1-0.8c-0.9-0.5-1.6-1.3-2.1-2.2c-0.5-1-0.8-2.1-0.8-3.3
	c0-1.2,0.3-2.3,0.8-3.3c0.5-1,1.2-1.7,2.1-2.2c0.9-0.5,2-0.8,3.1-0.8c1.1,0,2.1,0.3,3,0.8c0.9,0.5,1.7,1.3,2.3,2.2
	C178.4,17.6,178.9,18.7,179.1,20z M169.2,20c0,0.8,0.2,1.5,0.5,2.1c0.3,0.6,0.8,1.1,1.4,1.5c0.6,0.3,1.3,0.5,2,0.5
	c0.7,0,1.4-0.2,2.1-0.5c0.7-0.3,1.2-0.8,1.8-1.5c0.5-0.6,0.9-1.3,1.2-2.2c-0.3-0.8-0.7-1.5-1.2-2.1c-0.5-0.6-1.1-1.1-1.8-1.5
	c-0.7-0.3-1.4-0.5-2.1-0.5c-0.7,0-1.4,0.2-2,0.5c-0.6,0.3-1.1,0.8-1.4,1.5C169.4,18.5,169.2,19.2,169.2,20z"/>
<path class="st2" d="M185.1,26.2c-0.3,0-0.6-0.1-0.9-0.2c-0.3-0.2-0.5-0.4-0.6-0.6c-0.2-0.3-0.2-0.6-0.2-0.9s0.1-0.6,0.2-0.9
	c0.2-0.3,0.4-0.5,0.6-0.6c0.3-0.2,0.6-0.2,0.9-0.2c0.3,0,0.6,0.1,0.9,0.2c0.3,0.2,0.5,0.4,0.6,0.6c0.2,0.3,0.2,0.6,0.2,0.9
	s-0.1,0.6-0.2,0.9c-0.2,0.3-0.4,0.5-0.6,0.6C185.7,26.1,185.4,26.2,185.1,26.2z"/>
<path class="st2" d="M189.3,13.9h2.8v4.2l-0.1,0.4V21l0.1,0.7v7.8h-2.8V13.9z M191,20c0.3-1.3,0.7-2.4,1.3-3.3
	c0.6-1,1.4-1.7,2.3-2.2c0.9-0.5,1.9-0.8,3.1-0.8c1.2,0,2.2,0.3,3.1,0.8c0.9,0.5,1.6,1.3,2.1,2.2c0.5,1,0.8,2.1,0.8,3.3
	c0,1.2-0.3,2.3-0.8,3.3c-0.5,1-1.2,1.7-2.1,2.2c-0.9,0.5-2,0.8-3.1,0.8c-1.1,0-2.1-0.3-3-0.8c-0.9-0.5-1.7-1.3-2.3-2.2
	C191.7,22.3,191.3,21.2,191,20z M201,20c0-0.8-0.2-1.5-0.5-2.1c-0.3-0.6-0.8-1.1-1.4-1.5c-0.6-0.4-1.3-0.5-2-0.5
	c-0.7,0-1.4,0.2-2.1,0.5c-0.7,0.3-1.2,0.8-1.7,1.5c-0.5,0.6-0.9,1.3-1.2,2.1c0.3,0.8,0.7,1.5,1.2,2.2c0.5,0.6,1.1,1.1,1.7,1.5
	c0.7,0.3,1.4,0.5,2.1,0.5c0.7,0,1.4-0.2,2-0.5c0.6-0.3,1-0.8,1.4-1.5C200.8,21.5,201,20.8,201,20z"/>
<path class="st2" d="M208.4,29.8c-0.7,0-1.3-0.1-1.9-0.3c-0.6-0.2-1.1-0.4-1.6-0.7v-2.1c0.6,0.3,1.1,0.6,1.6,0.7
	c0.5,0.2,1,0.2,1.6,0.2c0.6,0,1.1-0.1,1.6-0.4c0.4-0.3,0.8-0.7,1.1-1.4l5.4-12h2.9l-6.3,12.9c-0.5,1-1.1,1.8-1.9,2.3
	C210.2,29.6,209.4,29.8,208.4,29.8z M209.8,25.6l-5.5-11.7h3.1l5.2,11.7H209.8z"/>
<path class="st2" d="M233.4,21.2c-0.1,1-0.5,1.9-1.2,2.6c-0.6,0.8-1.5,1.4-2.5,1.8c-1,0.4-2.1,0.6-3.3,0.6c-1.4,0-2.6-0.3-3.7-0.8
	c-1.1-0.5-1.9-1.3-2.5-2.2c-0.6-1-0.9-2.1-0.9-3.3c0-1.2,0.3-2.3,0.9-3.3c0.6-1,1.4-1.7,2.5-2.2c1.1-0.5,2.3-0.8,3.7-0.8
	c1.2,0,2.3,0.2,3.3,0.6c1,0.4,1.8,1,2.5,1.8c0.6,0.8,1,1.6,1.2,2.6h-2.8c-0.1-0.6-0.4-1.1-0.8-1.5c-0.4-0.4-0.9-0.8-1.5-1
	c-0.6-0.2-1.2-0.4-1.9-0.4c-0.9,0-1.6,0.2-2.2,0.5c-0.6,0.3-1.1,0.8-1.5,1.4c-0.3,0.6-0.5,1.4-0.5,2.2s0.2,1.6,0.5,2.2
	c0.3,0.6,0.8,1.1,1.5,1.4s1.4,0.5,2.2,0.5c0.7,0,1.4-0.1,1.9-0.4c0.6-0.2,1.1-0.6,1.4-1c0.4-0.4,0.6-0.9,0.8-1.5H233.4z"/>
<path class="st1" d="M40.8,42.4c-0.4,0.3-0.8,0.5-1.2,0.6c0.1,1.7-0.2,3.3-1.1,4.7c-0.4,0.7-0.9,1.3-1.5,1.9
	c2.2-1.3,3.7-3.7,3.8-6.3C40.9,43.1,40.8,42.7,40.8,42.4z M40.1,38.6c0-0.1-0.1-0.2-0.1-0.3c-0.4-1.4-1.1-2.6-2-3.7
	c-0.2,0.6-0.5,1.3-0.8,1.9c0.7,0.9,1.2,2,1.6,3C39.1,39.2,39.6,38.9,40.1,38.6z M29.2,31.2c-2.5,0.7-4.3,3-4.7,5.5
	c-0.4,2.5,0.3,5.2,1.4,7.4c-0.4-2.3-0.8-4.8-0.2-7.1c0.5-2,2.2-3.9,4.3-4.1c0.6,0,1.2,0,1.8,0.1l0.8-1.7c0,0-0.1,0-0.1,0
	C31.5,31,30.3,31,29.2,31.2z"/>
<path class="st1" d="M95.9,15.8c-2.8-1-3.1-2-0.8-4c-3.3,1.5-2.7,3.5-0.1,5.1c0.7-0.3,1.3-0.5,2-0.8C96.6,16,96.3,15.9,95.9,15.8z
	 M104,21.1c-0.3,0-0.3-0.2-0.4-0.5c-0.3-0.9-1-1.5-1.7-2c-0.9-0.7-1.9-1.3-2.9-1.7c-0.5-0.2-1-0.4-1.5-0.6c-0.4,0.2-0.8,0.5-1.2,0.7
	c-0.2,0.1-0.4,0.2-0.6,0.3c0.9,0.5,1.8,0.9,2.8,1.2c1,0.3,2.1,0.5,3,0.9c0.8,0.4,1.6,0.8,2,1.6c0.1,0.2,0.4,0.3,0.6,0.3
	c0.4,0,0.7-0.1,1.1-0.2C104.7,21.1,104.4,21.1,104,21.1z"/>
</svg>
